<?xml version="1.0" standalone="no"?>
<!DOCTYPE svg PUBLIC "-//W3C//DTD SVG 20010904//EN"
 "http://www.w3.org/TR/2001/REC-SVG-20010904/DTD/svg10.dtd">
<svg version="1.0" xmlns="http://www.w3.org/2000/svg"
 width="600.000000pt" height="480.000000pt" viewBox="0 0 600.000000 480.000000"
 preserveAspectRatio="xMidYMid meet">

<g transform="translate(0.000000,480.000000) scale(0.100000,-0.100000)"
fill="#000000" stroke="none">
<path d="M2761 3206 l-132 -133 23 -16 c19 -13 20 -18 9 -26 -9 -6 -20 -5 -31
1 -18 12 -50 5 -50 -10 0 -6 20 -15 44 -21 50 -12 63 -34 41 -67 -20 -31 -93
-34 -119 -5 -16 17 -16 19 4 24 11 3 23 1 26 -4 8 -14 54 -11 54 4 0 7 -19 18
-42 24 l-43 12 -222 -222 -223 -221 51 -52 52 -52 -54 -57 -53 -56 399 -399
400 -400 117 117 118 118 -337 337 -338 338 200 200 c109 109 197 201 195 203
-3 1 -17 8 -32 15 -51 21 -25 43 27 23 26 -11 55 5 55 29 0 23 -4 24 -30 8
-49 -31 -107 49 -79 107 20 41 42 52 79 38 21 -8 30 -8 30 -1 0 6 9 3 20 -7
15 -14 20 -31 20 -73 0 -54 0 -55 20 -37 11 10 20 24 20 31 0 7 6 11 13 9 7
-3 41 24 76 59 75 76 82 55 -69 196 l-106 99 -133 -133z m-14 -82 c8 -21 -13
-42 -28 -27 -13 13 -5 43 11 43 6 0 13 -7 17 -16z m3 -134 c0 -73 -2 -80 -20
-80 -18 0 -20 7 -20 80 0 73 2 80 20 80 18 0 20 -7 20 -80z"/>
<path d="M2842 3028 c-26 -26 -8 -88 25 -88 23 0 38 46 25 75 -13 27 -31 32
-50 13z"/>
<path d="M2750 2685 c0 -4 41 -81 90 -172 l90 -166 0 -93 0 -94 70 0 70 0 0
93 0 92 90 168 c50 92 90 170 90 172 0 3 -33 5 -72 5 l-73 0 -50 -95 c-27 -52
-52 -95 -55 -95 -3 0 -28 42 -55 93 l-50 92 -73 3 c-39 2 -72 0 -72 -3z"/>
<path d="M3610 2505 l-64 -65 64 -65 65 -65 65 65 65 65 -65 65 -65 65 -65
-65z"/>
</g>
</svg>
